                                                                        S      1
,,36Hweather_station_light_sensor_top v12,36Hweather_station_light_sensoG      1
r_top v12,7Hunknown,7Hunknown,32,38,7,99,15,,1.,2,2HMM,1,0.08,15H2019110G      2
8.120054,0.01,10000.,7Hunknown,7Hunknown,11,0,15H20190722.221646;       G      3
     186       1                                                00000000D      1
     186            -235       1       0                               0D      2
     514       2                                                00010000D      3
     514                       2       1                               0D      4
     510       4                                                00010000D      5
     510            -235       1       1                               0D      6
     510       5                                                00010000D      7
     510            -235       1       1                               0D      8
     510       6                                                00010000D      9
     510            -235       1       1                               0D     10
     510       7                                                00010000D     11
     510            -235       1       1                               0D     12
     510       8                                                00010000D     13
     510            -235       1       1                               0D     14
     510       9                                                00010000D     15
     510            -235       1       1                               0D     16
     510      10                                                00010000D     17
     510            -235       1       1                               0D     18
     510      11                                                00010000D     19
     510            -235       1       1                               0D     20
     510      12                                                00010000D     21
     510            -235       1       1                               0D     22
     510      13                                                00010000D     23
     510            -235       1       1                               0D     24
     510      14                                                00010000D     25
     510            -235       1       1                               0D     26
     510      15                                                00010000D     27
     510            -235       1       1                               0D     28
     510      16                                                00010000D     29
     510            -235       1       1                               0D     30
     510      17                                                00010000D     31
     510            -235       1       1                               0D     32
     510      18                                                00010000D     33
     510            -235       1       1                               0D     34
     510      19                                                00010000D     35
     510            -235       1       1                               0D     36
     510      20                                                00010000D     37
     510            -235       1       1                               0D     38
     510      21                                                00010000D     39
     510            -235       1       1                               0D     40
     510      22                                                00010000D     41
     510            -235       1       1                               0D     42
     510      23                                                00010000D     43
     510            -235       1       1                               0D     44
     508      24                                                00010000D     45
     508                       1       1                               0D     46
     508      25                                                00010000D     47
     508                       1       1                               0D     48
     508      26                                                00010000D     49
     508                       1       1                               0D     50
     508      27                                                00010000D     51
     508                       1       1                               0D     52
     508      28                                                00010000D     53
     508                       1       1                               0D     54
     508      29                                                00010000D     55
     508                       1       1                               0D     56
     508      30                                                00010000D     57
     508                       1       1                               0D     58
     508      31                                                00010000D     59
     508                       1       1                               0D     60
     508      32                                                00010000D     61
     508                       1       1                               0D     62
     508      33                                                00010000D     63
     508                       1       1                               0D     64
     508      34                                                00010000D     65
     508                       1       1                               0D     66
     508      35                                                00010000D     67
     508                       1       1                               0D     68
     508      36                                                00010000D     69
     508                       1       1                               0D     70
     508      37                                                00010000D     71
     508                       1       1                               0D     72
     508      38                                                00010000D     73
     508                       1       1                               0D     74
     508      39                                                00010000D     75
     508                       1       1                               0D     76
     508      40                                                00010000D     77
     508                       1       1                               0D     78
     508      41                                                00010000D     79
     508                       1       1                               0D     80
     508      42                                                00010000D     81
     508                       1       1                               0D     82
     508      43                                                00010000D     83
     508                       1       1                               0D     84
     508      44                                                00010000D     85
     508                       1       1                               0D     86
     508      45                                                00010000D     87
     508                       1       1                               0D     88
     508      46                                                00010000D     89
     508                       1       1                               0D     90
     508      47                                                00010000D     91
     508                       1       1                               0D     92
     126      48                                                00010000D     93
     126       0               2       0                               0D     94
     126      50                                                00010000D     95
     126       0               2       0                               0D     96
     126      52                                                00010000D     97
     126       0               2       0                               0D     98
     126      54                                                00010000D     99
     126       0               2       0                               0D    100
     126      56                                                00010000D    101
     126       0               3       0                               0D    102
     126      59                                                00010000D    103
     126       0               3       0                               0D    104
     126      62                                                00010000D    105
     126       0               2       0                               0D    106
     126      64                                                00010000D    107
     126       0               2       0                               0D    108
     126      66                                                00010000D    109
     126       0               2       0                               0D    110
     126      68                                                00010000D    111
     126       0               2       0                               0D    112
     126      70                                                00010000D    113
     126       0               2       0                               0D    114
     126      72                                                00010000D    115
     126       0               2       0                               0D    116
     126      74                                                00010000D    117
     126       0               2       0                               0D    118
     126      76                                                00010000D    119
     126       0               2       0                               0D    120
     126      78                                                00010000D    121
     126       0               2       0                               0D    122
     126      80                                                00010000D    123
     126       0               2       0                               0D    124
     126      82                                                00010000D    125
     126       0               2       0                               0D    126
     126      84                                                00010000D    127
     126       0               2       0                               0D    128
     126      86                                                00010000D    129
     126       0               2       0                               0D    130
     126      88                                                00010000D    131
     126       0               2       0                               0D    132
     126      90                                                00010000D    133
     126       0               2       0                               0D    134
     126      92                                                00010000D    135
     126       0               2       0                               0D    136
     126      94                                                00010000D    137
     126       0               2       0                               0D    138
     126      96                                                00010000D    139
     126       0               2       0                               0D    140
     126      98                                                00010000D    141
     126       0               2       0                               0D    142
     126     100                                                00010000D    143
     126       0               2       0                               0D    144
     126     102                                                00010000D    145
     126       0               2       0                               0D    146
     126     104                                                00010000D    147
     126       0               2       0                               0D    148
     126     106                                                00010000D    149
     126       0               2       0                               0D    150
     126     108                                                00010000D    151
     126       0               2       0                               0D    152
     126     110                                                00010000D    153
     126       0               2       0                               0D    154
     126     112                                                00010000D    155
     126       0               2       0                               0D    156
     126     114                                                00010000D    157
     126       0               2       0                               0D    158
     126     116                                                00010000D    159
     126       0               2       0                               0D    160
     126     118                                                00010000D    161
     126       0               2       0                               0D    162
     126     120                                                00010000D    163
     126       0               2       0                               0D    164
     126     122                                                00010000D    165
     126       0               2       0                               0D    166
     126     124                                                00010000D    167
     126       0               2       0                               0D    168
     126     126                                                00010000D    169
     126       0               2       0                               0D    170
     126     128                                                00010000D    171
     126       0               2       0                               0D    172
     126     130                                                00010000D    173
     126       0               2       0                               0D    174
     126     132                                                00010000D    175
     126       0               2       0                               0D    176
     126     134                                                00010000D    177
     126       0               2       0                               0D    178
     126     136                                                00010000D    179
     126       0               2       0                               0D    180
     126     138                                                00010000D    181
     126       0               2       0                               0D    182
     126     140                                                00010000D    183
     126       0               2       0                               0D    184
     126     142                                                00010000D    185
     126       0               2       0                               0D    186
     126     144                                                00010000D    187
     126       0               2       0                               0D    188
     128     146                                                00010000D    189
     128       0    -235       4       0                               0D    190
     128     150                                                00010000D    191
     128       0    -235       5       0                               0D    192
     128     155                                                00010000D    193
     128       0    -235       4       0                               0D    194
     128     159                                                00010000D    195
     128       0    -235       3       0                               0D    196
     128     162                                                00010000D    197
     128       0    -235       3       0                               0D    198
     128     165                                                00010000D    199
     128       0    -235       3       0                               0D    200
     128     168                                                00010000D    201
     128       0    -235       4       0                               0D    202
     128     172                                                00010000D    203
     128       0    -235       3       0                               0D    204
     128     175                                                00010000D    205
     128       0    -235       4       0                               0D    206
     128     179                                                00010000D    207
     128       0    -235       3       0                               0D    208
     128     182                                                00010000D    209
     128       0    -235       4       0                               0D    210
     128     186                                                00010000D    211
     128       0    -235       3       0                               0D    212
     128     189                                                00010000D    213
     128       0    -235       3       0                               0D    214
     128     192                                                00010000D    215
     128       0    -235       4       0                               0D    216
     128     196                                                00010000D    217
     128       0    -235       4       0                               0D    218
     128     200                                                00010000D    219
     128       0    -235       3       0                               0D    220
     128     203                                                00010000D    221
     128       0    -235       3       0                               0D    222
     128     206                                                00010000D    223
     128       0    -235       3       0                               0D    224
     128     209                                                00010000D    225
     128       0    -235       3       0                               0D    226
     128     212                                                00010000D    227
     128       0    -235       3       0                               0D    228
     502     215                                                00010000D    229
     502                      10       1                               0D    230
     504     225                                                00010001D    231
     504                      14       1                               0D    232
     406     239                                                00000000D    233
     406                       1      15                               0D    234
     314     240                                                00000200D    235
     314                       2       0                               0D    236
186,3,1,0,0,1,233;                                                     1P      1
514,20,5,1,7,1,9,1,11,1,13,1,15,1,17,1,19,1,21,1,23,1,25,1,27,1,       3P      2
29,1,31,1,33,1,35,1,37,1,39,1,41,1,43,1;                               3P      3
510,189,1,1,45;                                                        5P      4
510,191,1,1,47;                                                        7P      5
510,193,1,1,49;                                                        9P      6
510,195,1,1,51;                                                       11P      7
510,197,2,1,53,55;                                                    13P      8
510,199,2,1,57,59;                                                    15P      9
510,201,1,1,61;                                                       17P     10
510,203,1,1,63;                                                       19P     11
510,205,1,1,65;                                                       21P     12
510,207,1,1,67;                                                       23P     13
510,209,1,1,69;                                                       25P     14
510,211,2,1,71,73;                                                    27P     15
510,213,1,1,75;                                                       29P     16
510,215,1,1,77;                                                       31P     17
510,217,1,1,79;                                                       33P     18
510,219,1,1,81;                                                       35P     19
510,221,1,1,83;                                                       37P     20
510,223,1,1,85;                                                       39P     21
510,225,1,1,87;                                                       41P     22
510,227,2,1,89,91;                                                    43P     23
508,4,0,231,1,0,0,0,231,2,1,0,0,231,3,0,0,0,231,4,0,0;                45P     24
508,4,0,231,5,0,0,0,231,4,1,0,0,231,6,0,0,0,231,7,0,0;                47P     25
508,4,0,231,8,0,0,0,231,7,1,0,0,231,9,0,0,0,231,10,0,0;               49P     26
508,4,0,231,11,0,0,0,231,10,1,0,0,231,12,0,0,0,231,2,0,0;             51P     27
508,4,0,231,13,0,0,0,231,14,0,0,0,231,15,0,0,0,231,16,0,0;            53P     28
508,4,0,231,11,1,0,0,231,1,1,0,0,231,5,1,0,0,231,8,1,0;               55P     29
508,4,0,231,17,0,0,0,231,18,0,0,0,231,19,0,0,0,231,20,0,0;            57P     30
508,4,0,231,12,1,0,0,231,9,1,0,0,231,6,1,0,0,231,3,1,0;               59P     31
508,4,0,231,20,1,0,0,231,21,0,0,0,231,22,0,0,0,231,23,0,0;            61P     32
508,4,0,231,14,1,0,0,231,24,0,0,0,231,25,0,0,0,231,26,0,0;            63P     33
508,4,0,231,19,1,0,0,231,27,0,0,0,231,28,0,0,0,231,21,1,0;            65P     34
508,4,0,231,13,1,0,0,231,29,1,0,0,231,30,0,0,0,231,24,1,0;            67P     35
508,4,0,231,18,1,0,0,231,31,0,0,0,231,32,0,0,0,231,27,1,0;            69P     36
508,4,0,231,33,1,0,0,231,34,1,0,0,231,35,1,0,0,231,36,1,0;            71P     37
508,4,0,231,37,1,0,0,231,22,1,0,0,231,28,1,0,0,231,32,1,0;            73P     38
508,4,0,231,15,1,0,0,231,26,1,0,0,231,38,0,0,0,231,39,0,0;            75P     39
508,4,0,231,16,1,0,0,231,39,1,0,0,231,40,0,0,0,231,29,0,0;            77P     40
508,4,0,231,17,1,0,0,231,23,1,0,0,231,37,0,0,0,231,31,1,0;            79P     41
508,4,0,231,41,0,0,0,231,42,0,0,0,231,43,0,0,0,231,34,0,0;            81P     42
508,4,0,231,43,1,0,0,231,44,0,0,0,231,45,0,0,0,231,35,0,0;            83P     43
508,4,0,231,45,1,0,0,231,46,0,0,0,231,47,0,0,0,231,36,0,0;            85P     44
508,4,0,231,47,1,0,0,231,48,0,0,0,231,41,1,0,0,231,33,0,0;            87P     45
508,4,0,231,48,1,0,0,231,46,1,0,0,231,44,1,0,0,231,42,1,0;            89P     46
508,4,0,231,30,1,0,0,231,40,1,0,0,231,38,1,0,0,231,25,1,0;            91P     47
126,1,1,0,0,1,0,0.,0.,1.35,1.35,1.,1.,13.5,0.750000000000001,0.,      93P     48
0.,0.75,0.,0.,1.35,0.,0.,0.;                                          93P     49
126,1,1,0,0,1,0,0.,0.,0.138,0.138,1.,1.,13.5,0.750000000000001,       95P     50
0.,13.5,0.750000000000001,-1.38,0.,0.138,0.,0.,0.;                    95P     51
126,1,1,0,0,1,0,-1.35,-1.35,0.,0.,1.,1.,0.,0.75,-1.38,13.5,           97P     52
0.750000000000001,-1.38,-1.35,0.,0.,0.,0.;                            97P     53
126,1,1,0,0,1,0,0.,0.,0.138,0.138,1.,1.,0.,0.75,0.,0.,0.75,           99P     54
-1.38,0.,0.138,0.,0.,0.;                                              99P     55
126,1,1,0,0,1,0,0.075,0.075,1.868,1.868,1.,1.,                       101P     56
-1.33813969373277D-33,0.75,0.,-3.33285993052375D-32,18.68,0.,        101P     57
0.075,1.868,0.,0.,0.;                                                101P     58
126,1,1,0,0,1,0,-1.868,-1.868,-0.075,-0.075,1.,1.,                   103P     59
-3.33285993052375D-32,18.68,-1.38,-1.33813969373277D-33,0.75,        103P     60
-1.38,-1.868,-0.075,0.,0.,0.;                                        103P     61
126,1,1,0,0,1,0,0.,0.,0.138,0.138,1.,1.,0.,18.68,0.,0.,18.68,        105P     62
-1.38,0.,0.138,0.,0.,0.;                                             105P     63
126,1,1,0,0,1,0,-1.35,-1.35,0.,0.,1.,1.,0.,18.68,0.,13.5,18.68,      107P     64
0.,-1.35,0.,0.,0.,0.;                                                107P     65
126,1,1,0,0,1,0,0.,0.,1.35,1.35,1.,1.,13.5,18.68,-1.38,0.,18.68,     109P     66
-1.38,0.,1.35,0.,0.,0.;                                              109P     67
126,1,1,0,0,1,0,0.,0.,0.138,0.138,1.,1.,13.5,18.68,0.,13.5,          111P     68
18.68,-1.38,0.,0.138,0.,0.,0.;                                       111P     69
126,1,1,0,0,1,0,0.075,0.075,1.868,1.868,1.,1.,13.5,18.68,0.,         113P     70
13.5,0.75,0.,0.075,1.868,0.,0.,0.;                                   113P     71
126,1,1,0,0,1,0,-1.868,-1.868,-0.075,-0.075,1.,1.,13.5,0.75,         115P     72
-1.38,13.5,18.68,-1.38,-1.868,-0.075,0.,0.,0.;                       115P     73
126,1,1,0,0,1,0,-0.6575,-0.6575,1.9725,1.9725,1.,1.,-2.55,           117P     74
-3.435,0.,-2.55,22.865,0.,-0.6575,1.9725,0.,0.,0.;                   117P     75
126,1,1,0,0,1,0,-0.565,-0.565,1.695,1.695,1.,1.,20.05,-3.435,0.,     119P     76
-2.55,-3.435,0.,-0.565,1.695,0.,0.,0.;                               119P     77
126,1,1,0,0,1,0,-0.6575,-0.6575,1.9725,1.9725,1.,1.,20.05,           121P     78
22.865,0.,20.05,-3.435,0.,-0.6575,1.9725,0.,0.,0.;                   121P     79
126,1,1,0,0,1,0,-0.565,-0.565,1.695,1.695,1.,1.,-2.55,22.865,0.,     123P     80
20.05,22.865,0.,-0.565,1.695,0.,0.,0.;                               123P     81
126,1,1,0,0,1,0,-1.9725,-1.9725,0.6575,0.6575,1.,1.,-2.55,           125P     82
22.865,-1.38,-2.55,-3.435,-1.38,-1.9725,0.6575,0.,0.,0.;             125P     83
126,1,1,0,0,1,0,-1.695,-1.695,0.565,0.565,1.,1.,20.05,22.865,        127P     84
-1.38,-2.55,22.865,-1.38,-1.695,0.565,0.,0.,0.;                      127P     85
126,1,1,0,0,1,0,-1.9725,-1.9725,0.6575,0.6575,1.,1.,20.05,           129P     86
-3.435,-1.38,20.05,22.865,-1.38,-1.9725,0.6575,0.,0.,0.;             129P     87
126,1,1,0,0,1,0,-1.695,-1.695,0.565,0.565,1.,1.,-2.55,-3.435,        131P     88
-1.38,20.05,-3.435,-1.38,-1.695,0.565,0.,0.,0.;                      131P     89
126,1,1,0,0,1,0,-0.338,-0.338,-0.138,-0.138,1.,1.,20.05,-3.435,      133P     90
-3.38,20.05,-3.435,-1.38,-0.338,-0.138,0.,0.,0.;                     133P     91
126,1,1,0,0,1,0,0.,0.,2.26,2.26,1.,1.,-2.55,-3.435,-3.38,20.05,      135P     92
-3.435,-3.38,0.,2.26,0.,0.,0.;                                       135P     93
126,1,1,0,0,1,0,0.138,0.138,0.338,0.338,1.,1.,-2.55,-3.435,          137P     94
-1.38,-2.55,-3.435,-3.38,0.138,0.338,0.,0.,0.;                       137P     95
126,1,1,0,0,1,0,-0.162,-0.162,0.,0.,1.,1.,-2.55,-3.435,1.62,         139P     96
-2.55,-3.435,0.,-0.162,0.,0.,0.,0.;                                  139P     97
126,1,1,0,0,1,0,-2.26,-2.26,0.,0.,1.,1.,20.05,-3.435,1.62,-2.55,     141P     98
-3.435,1.62,-2.26,0.,0.,0.,0.;                                       141P     99
126,1,1,0,0,1,0,0.,0.,0.162,0.162,1.,1.,20.05,-3.435,0.,20.05,       143P    100
-3.435,1.62,0.,0.162,0.,0.,0.;                                       143P    101
126,1,1,0,0,1,0,-0.338,-0.338,-0.138,-0.138,1.,1.,20.05,22.865,      145P    102
-3.38,20.05,22.865,-1.38,-0.338,-0.138,0.,0.,0.;                     145P    103
126,1,1,0,0,1,0,0.,0.,2.63,2.63,1.,1.,20.05,-3.435,-3.38,20.05,      147P    104
22.865,-3.38,0.,2.63,0.,0.,0.;                                       147P    105
126,1,1,0,0,1,0,0.,0.,0.162,0.162,1.,1.,-2.55,22.865,0.,-2.55,       149P    106
22.865,1.62,0.,0.162,0.,0.,0.;                                       149P    107
126,1,1,0,0,1,0,-2.63,-2.63,0.,0.,1.,1.,-2.55,-3.435,1.62,-2.55,     151P    108
22.865,1.62,-2.63,0.,0.,0.,0.;                                       151P    109
126,1,1,0,0,1,0,-0.338,-0.338,-0.138,-0.138,1.,1.,-2.55,22.865,      153P    110
-3.38,-2.55,22.865,-1.38,-0.338,-0.138,0.,0.,0.;                     153P    111
126,1,1,0,0,1,0,0.,0.,2.26,2.26,1.,1.,20.05,22.865,-3.38,-2.55,      155P    112
22.865,-3.38,0.,2.26,0.,0.,0.;                                       155P    113
126,1,1,0,0,1,0,-3.,-3.,0.,0.,1.,1.,-4.4,-5.285,-3.38,-4.4,          157P    114
24.715,-3.38,-3.,0.,0.,0.,0.;                                        157P    115
126,1,1,0,0,1,0,-2.63,-2.63,0.,0.,1.,1.,-4.4,24.715,-3.38,21.9,      159P    116
24.715,-3.38,-2.63,0.,0.,0.,0.;                                      159P    117
126,1,1,0,0,1,0,-3.,-3.,0.,0.,1.,1.,21.9,24.715,-3.38,21.9,          161P    118
-5.285,-3.38,-3.,0.,0.,0.,0.;                                        161P    119
126,1,1,0,0,1,0,-2.63,-2.63,0.,0.,1.,1.,21.9,-5.285,-3.38,-4.4,      163P    120
-5.285,-3.38,-2.63,0.,0.,0.,0.;                                      163P    121
126,1,1,0,0,1,0,0.,0.,2.63,2.63,1.,1.,-2.55,22.865,-3.38,-2.55,      165P    122
-3.435,-3.38,0.,2.63,0.,0.,0.;                                       165P    123
126,1,1,0,0,1,0,-2.63,-2.63,0.,0.,1.,1.,20.05,22.865,1.62,20.05,     167P    124
-3.435,1.62,-2.63,0.,0.,0.,0.;                                       167P    125
126,1,1,0,0,1,0,0.,0.,0.162,0.162,1.,1.,20.05,22.865,0.,20.05,       169P    126
22.865,1.62,0.,0.162,0.,0.,0.;                                       169P    127
126,1,1,0,0,1,0,-2.26,-2.26,0.,0.,1.,1.,-2.55,22.865,1.62,20.05,     171P    128
22.865,1.62,-2.26,0.,0.,0.,0.;                                       171P    129
126,1,1,0,0,1,0,-0.162,-0.162,0.338,0.338,1.,1.,-4.4,24.715,         173P    130
1.62,-4.4,24.715,-3.38,-0.162,0.338,0.,0.,0.;                        173P    131
126,1,1,0,0,1,0,0.,0.,2.63,2.63,1.,1.,21.9,24.715,1.62,-4.4,         175P    132
24.715,1.62,0.,2.63,0.,0.,0.;                                        175P    133
126,1,1,0,0,1,0,-0.338,-0.338,0.162,0.162,1.,1.,21.9,24.715,         177P    134
-3.38,21.9,24.715,1.62,-0.338,0.162,0.,0.,0.;                        177P    135
126,1,1,0,0,1,0,0.,0.,3.,3.,1.,1.,21.9,-5.285,1.62,21.9,24.715,      179P    136
1.62,0.,3.,0.,0.,0.;                                                 179P    137
126,1,1,0,0,1,0,-0.338,-0.338,0.162,0.162,1.,1.,21.9,-5.285,         181P    138
-3.38,21.9,-5.285,1.62,-0.338,0.162,0.,0.,0.;                        181P    139
126,1,1,0,0,1,0,0.,0.,2.63,2.63,1.,1.,-4.4,-5.285,1.62,21.9,         183P    140
-5.285,1.62,0.,2.63,0.,0.,0.;                                        183P    141
126,1,1,0,0,1,0,-0.338,-0.338,0.162,0.162,1.,1.,-4.4,-5.285,         185P    142
-3.38,-4.4,-5.285,1.62,-0.338,0.162,0.,0.,0.;                        185P    143
126,1,1,0,0,1,0,0.,0.,3.,3.,1.,1.,-4.4,24.715,1.62,-4.4,-5.285,      187P    144
1.62,0.,3.,0.,0.,0.;                                                 187P    145
128,1,1,1,1,0,0,1,0,0,-0.001,-0.001,1.351,1.351,-0.001,-0.001,       189P    146
0.139,0.139,1.,1.,1.,1.,-0.01,0.75,0.01,13.51,0.750000000000001,     189P    147
0.01,-0.01,0.75,-1.39,13.51,0.750000000000001,-1.39,-0.001,          189P    148
1.351,-0.001,0.139;                                                  189P    149
128,1,1,1,1,0,0,1,0,0,-0.001,-0.001,1.794,1.794,-0.001,-0.001,       191P    150
0.139,0.139,1.,1.,1.,1.,-3.33464411678206D-32,18.69,0.01,            191P    151
-1.32029783114967D-33,0.740000000000001,0.01,                        191P    152
-3.33464411678206D-32,18.69,-1.39,-1.32029783114967D-33,             191P    153
0.740000000000001,-1.39,-0.001,1.794,-0.001,0.139;                   191P    154
128,1,1,1,1,0,0,1,0,0,-0.001,-0.001,1.351,1.351,-0.001,-0.001,       193P    155
0.139,0.139,1.,1.,1.,1.,13.51,18.68,0.01,-0.0099999999999989,        193P    156
18.68,0.01,13.51,18.68,-1.39,-0.0099999999999989,18.68,-1.39,        193P    157
-0.001,1.351,-0.001,0.139;                                           193P    158
128,1,1,1,1,0,0,1,0,0,-0.001,-0.001,1.794,1.794,-0.001,-0.001,       195P    159
0.139,0.139,1.,1.,1.,1.,13.5,0.74,0.01,13.5,18.69,0.01,13.5,         195P    160
0.74,-1.39,13.5,18.69,-1.39,-0.001,1.794,-0.001,0.139;               195P    161
128,1,1,1,1,0,0,1,0,0,-1.131,-1.131,1.131,1.131,-1.316,-1.316,       197P    162
1.316,1.316,1.,1.,1.,1.,-2.56,-3.445,0.,20.06,-3.445,0.,-2.56,       197P    163
22.875,0.,20.06,22.875,0.,-1.131,1.131,-1.316,1.316;                 197P    164
128,1,1,1,1,0,0,1,0,0,-1.131,-1.131,1.131,1.131,-1.316,-1.316,       199P    165
1.316,1.316,1.,1.,1.,1.,20.06,-3.445,-1.38,-2.56,-3.445,-1.38,       199P    166
20.06,22.875,-1.38,-2.56,22.875,-1.38,-1.131,1.131,-1.316,1.316;     199P    167
128,1,1,1,1,0,0,1,0,0,-0.00100000000000044,-0.00100000000000044,     201P    168
2.261,2.261,-0.339,-0.339,-0.137,-0.137,1.,1.,1.,1.,20.06,           201P    169
-3.435,-3.39,-2.56,-3.435,-3.39,20.06,-3.435,-1.37,-2.56,-3.435,     201P    170
-1.37,-0.00100000000000044,2.261,-0.339,-0.137;                      201P    171
128,1,1,1,1,0,0,1,0,0,-0.001,-0.001,2.261,2.261,-0.001,-0.001,       203P    172
0.163,0.163,1.,1.,1.,1.,20.06,-3.435,-0.01,-2.56,-3.435,-0.01,       203P    173
20.06,-3.435,1.63,-2.56,-3.435,1.63,-0.001,2.261,-0.001,0.163;       203P    174
128,1,1,1,1,0,0,1,0,0,-0.001,-0.001,2.631,2.631,-0.339,-0.339,       205P    175
-0.137,-0.137,1.,1.,1.,1.,20.05,22.875,-3.39,20.05,-3.445,-3.39,     205P    176
20.05,22.875,-1.37,20.05,-3.445,-1.37,-0.001,2.631,-0.339,           205P    177
-0.137;                                                              205P    178
128,1,1,1,1,0,0,1,0,0,-0.001,-0.001,2.631,2.631,-0.001,-0.001,       207P    179
0.163,0.163,1.,1.,1.,1.,-2.55,-3.445,-0.01,-2.55,22.875,-0.01,       207P    180
-2.55,-3.445,1.63,-2.55,22.875,1.63,-0.001,2.631,-0.001,0.163;       207P    181
128,1,1,1,1,0,0,1,0,0,-0.00100000000000033,-0.00100000000000033,     209P    182
2.261,2.261,-0.339,-0.339,-0.137,-0.137,1.,1.,1.,1.,-2.56,           209P    183
22.865,-3.39,20.06,22.865,-3.39,-2.56,22.865,-1.37,20.06,22.865,     209P    184
-1.37,-0.00100000000000033,2.261,-0.339,-0.137;                      209P    185
128,1,1,1,1,0,0,1,0,0,-1.316,-1.316,1.316,1.316,-1.501,-1.501,       211P    186
1.501,1.501,1.,1.,1.,1.,21.91,-5.295,-3.38,-4.41,-5.295,-3.38,       211P    187
21.91,24.725,-3.38,-4.41,24.725,-3.38,-1.316,1.316,-1.501,1.501;     211P    188
128,1,1,1,1,0,0,1,0,0,-0.001,-0.001,2.631,2.631,-0.001,-0.001,       213P    189
0.163,0.163,1.,1.,1.,1.,20.05,22.875,-0.01,20.05,-3.445,-0.01,       213P    190
20.05,22.875,1.63,20.05,-3.445,1.63,-0.001,2.631,-0.001,0.163;       213P    191
128,1,1,1,1,0,0,1,0,0,-0.00100000000000011,-0.00100000000000011,     215P    192
2.261,2.261,-0.001,-0.001,0.163,0.163,1.,1.,1.,1.,-2.56,22.865,      215P    193
-0.01,20.06,22.865,-0.01,-2.56,22.865,1.63,20.06,22.865,1.63,        215P    194
-0.00100000000000011,2.261,-0.001,0.163;                             215P    195
128,1,1,1,1,0,0,1,0,0,-0.001,-0.001,2.631,2.631,-0.339,-0.339,       217P    196
-0.137,-0.137,1.,1.,1.,1.,-2.55,-3.445,-3.39,-2.55,22.875,-3.39,     217P    197
-2.55,-3.445,-1.37,-2.55,22.875,-1.37,-0.001,2.631,-0.339,           217P    198
-0.137;                                                              217P    199
128,1,1,1,1,0,0,1,0,0,-0.001,-0.001,2.631,2.631,-0.339,-0.339,       219P    200
0.163,0.163,1.,1.,1.,1.,21.91,24.715,-3.39,-4.41,24.715,-3.39,       219P    201
21.91,24.715,1.63,-4.41,24.715,1.63,-0.001,2.631,-0.339,0.163;       219P    202
128,1,1,1,1,0,0,1,0,0,-0.001,-0.001,3.001,3.001,-0.339,-0.339,       221P    203
0.163,0.163,1.,1.,1.,1.,21.9,-5.295,-3.39,21.9,24.725,-3.39,         221P    204
21.9,-5.295,1.63,21.9,24.725,1.63,-0.001,3.001,-0.339,0.163;         221P    205
128,1,1,1,1,0,0,1,0,0,-0.001,-0.001,2.631,2.631,-0.339,-0.339,       223P    206
0.163,0.163,1.,1.,1.,1.,-4.41,-5.285,-3.39,21.91,-5.285,-3.39,       223P    207
-4.41,-5.285,1.63,21.91,-5.285,1.63,-0.001,2.631,-0.339,0.163;       223P    208
128,1,1,1,1,0,0,1,0,0,-0.001,-0.001,3.001,3.001,-0.339,-0.339,       225P    209
0.163,0.163,1.,1.,1.,1.,-4.4,24.725,-3.39,-4.4,-5.295,-3.39,         225P    210
-4.4,24.725,1.63,-4.4,-5.295,1.63,-0.001,3.001,-0.339,0.163;         225P    211
128,1,1,1,1,0,0,1,0,0,-1.316,-1.316,1.316,1.316,-1.501,-1.501,       227P    212
1.501,1.501,1.,1.,1.,1.,-4.41,-5.295,1.62,21.91,-5.295,1.62,         227P    213
-4.41,24.725,1.62,21.91,24.725,1.62,-1.316,1.316,-1.501,1.501;       227P    214
502,32,13.5,0.750000000000001,0.,0.,0.75,0.,13.5,0.75,-1.38,0.,      229P    215
0.75,-1.38,0.,18.68,0.,0.,18.68,-1.38,13.5,18.68,0.,13.5,18.68,      229P    216
-1.38,-2.55,-3.435,0.,-2.55,22.865,0.,20.05,-3.435,0.,20.05,         229P    217
22.865,0.,-2.55,22.865,-1.38,-2.55,-3.435,-1.38,20.05,22.865,        229P    218
-1.38,20.05,-3.435,-1.38,20.05,-3.435,-3.38,-2.55,-3.435,-3.38,      229P    219
-2.55,-3.435,1.62,20.05,-3.435,1.62,20.05,22.865,-3.38,-2.55,        229P    220
22.865,1.62,-2.55,22.865,-3.38,-4.4,-5.285,-3.38,-4.4,24.715,        229P    221
-3.38,21.9,24.715,-3.38,21.9,-5.285,-3.38,20.05,22.865,1.62,         229P    222
-4.4,24.715,1.62,21.9,24.715,1.62,21.9,-5.285,1.62,-4.4,-5.285,      229P    223
1.62;                                                                229P    224
504,48,93,229,1,229,2,95,229,1,229,3,97,229,4,229,3,99,229,2,        231P    225
229,4,101,229,2,229,5,103,229,6,229,4,105,229,5,229,6,107,229,5,     231P    226
229,7,109,229,8,229,6,111,229,7,229,8,113,229,7,229,1,115,229,3,     231P    227
229,8,117,229,9,229,10,119,229,11,229,9,121,229,12,229,11,123,       231P    228
229,10,229,12,125,229,13,229,14,127,229,15,229,13,129,229,16,        231P    229
229,15,131,229,14,229,16,133,229,17,229,16,135,229,18,229,17,        231P    230
137,229,14,229,18,139,229,19,229,9,141,229,20,229,19,143,229,11,     231P    231
229,20,145,229,21,229,15,147,229,17,229,21,149,229,10,229,22,        231P    232
151,229,19,229,22,153,229,23,229,13,155,229,21,229,23,157,229,       231P    233
24,229,25,159,229,25,229,26,161,229,26,229,27,163,229,27,229,24,     231P    234
165,229,23,229,18,167,229,28,229,20,169,229,12,229,28,171,229,       231P    235
22,229,28,173,229,29,229,25,175,229,30,229,29,177,229,26,229,30,     231P    236
179,229,31,229,30,181,229,27,229,31,183,229,32,229,31,185,229,       231P    237
24,229,32,187,229,29,229,32;                                         231P    238
406,1,5HBody8;                                                       233P    239
314,62.7450980392157,62.7450980392157,62.7450980392157,13HSteel      235P    240
- Satin;                                                             235P    241
S      1G      3D    236P    241                                        T      1
